<mxfile host="app.diagrams.net" modified="2020-10-30T10:25:30.508Z" agent="5.0 (Windows NT 10.0; Win64; x64) AppleWebKit/537.36 (KHTML, like Gecko) Chrome/86.0.4240.111 Safari/537.36" etag="Aw3xd72nSObLBvrzkCZz" version="13.8.7" type="github">
  <diagram id="E2AG5l3909TtfdcxwEwQ" name="Page-1">
    <mxGraphModel dx="1233" dy="762" grid="1" gridSize="10" guides="1" tooltips="1" connect="1" arrows="1" fold="1" page="1" pageScale="1" pageWidth="850" pageHeight="1100" math="0" shadow="0">
      <root>
        <mxCell id="0" />
        <mxCell id="1" parent="0" />
        <mxCell id="jH1fqyZ80DPGrTCw75-x-1" value="Table" style="shape=table;startSize=30;container=1;collapsible=1;childLayout=tableLayout;fixedRows=1;rowLines=0;fontStyle=1;align=center;resizeLast=1;" vertex="1" parent="1">
          <mxGeometry x="80" y="80" width="430" height="160" as="geometry" />
        </mxCell>
        <mxCell id="jH1fqyZ80DPGrTCw75-x-2" value="" style="shape=partialRectangle;collapsible=0;dropTarget=0;pointerEvents=0;fillColor=none;top=0;left=0;bottom=1;right=0;points=[[0,0.5],[1,0.5]];portConstraint=eastwest;" vertex="1" parent="jH1fqyZ80DPGrTCw75-x-1">
          <mxGeometry y="30" width="430" height="30" as="geometry" />
        </mxCell>
        <mxCell id="jH1fqyZ80DPGrTCw75-x-3" value="PK" style="shape=partialRectangle;connectable=0;fillColor=none;top=0;left=0;bottom=0;right=0;fontStyle=1;overflow=hidden;" vertex="1" parent="jH1fqyZ80DPGrTCw75-x-2">
          <mxGeometry width="30" height="30" as="geometry" />
        </mxCell>
        <mxCell id="jH1fqyZ80DPGrTCw75-x-4" value="UniqueID" style="shape=partialRectangle;connectable=0;fillColor=none;top=0;left=0;bottom=0;right=0;align=left;spacingLeft=6;fontStyle=5;overflow=hidden;" vertex="1" parent="jH1fqyZ80DPGrTCw75-x-2">
          <mxGeometry x="30" width="400" height="30" as="geometry" />
        </mxCell>
        <mxCell id="jH1fqyZ80DPGrTCw75-x-5" value="" style="shape=partialRectangle;collapsible=0;dropTarget=0;pointerEvents=0;fillColor=none;top=0;left=0;bottom=0;right=0;points=[[0,0.5],[1,0.5]];portConstraint=eastwest;" vertex="1" parent="jH1fqyZ80DPGrTCw75-x-1">
          <mxGeometry y="60" width="430" height="30" as="geometry" />
        </mxCell>
        <mxCell id="jH1fqyZ80DPGrTCw75-x-6" value="" style="shape=partialRectangle;connectable=0;fillColor=none;top=0;left=0;bottom=0;right=0;editable=1;overflow=hidden;" vertex="1" parent="jH1fqyZ80DPGrTCw75-x-5">
          <mxGeometry width="30" height="30" as="geometry" />
        </mxCell>
        <mxCell id="jH1fqyZ80DPGrTCw75-x-7" value="Row 1" style="shape=partialRectangle;connectable=0;fillColor=none;top=0;left=0;bottom=0;right=0;align=left;spacingLeft=6;overflow=hidden;" vertex="1" parent="jH1fqyZ80DPGrTCw75-x-5">
          <mxGeometry x="30" width="400" height="30" as="geometry" />
        </mxCell>
        <mxCell id="jH1fqyZ80DPGrTCw75-x-8" value="" style="shape=partialRectangle;collapsible=0;dropTarget=0;pointerEvents=0;fillColor=none;top=0;left=0;bottom=0;right=0;points=[[0,0.5],[1,0.5]];portConstraint=eastwest;" vertex="1" parent="jH1fqyZ80DPGrTCw75-x-1">
          <mxGeometry y="90" width="430" height="30" as="geometry" />
        </mxCell>
        <mxCell id="jH1fqyZ80DPGrTCw75-x-9" value="" style="shape=partialRectangle;connectable=0;fillColor=none;top=0;left=0;bottom=0;right=0;editable=1;overflow=hidden;" vertex="1" parent="jH1fqyZ80DPGrTCw75-x-8">
          <mxGeometry width="30" height="30" as="geometry" />
        </mxCell>
        <mxCell id="jH1fqyZ80DPGrTCw75-x-10" value="Row 2" style="shape=partialRectangle;connectable=0;fillColor=none;top=0;left=0;bottom=0;right=0;align=left;spacingLeft=6;overflow=hidden;" vertex="1" parent="jH1fqyZ80DPGrTCw75-x-8">
          <mxGeometry x="30" width="400" height="30" as="geometry" />
        </mxCell>
        <mxCell id="jH1fqyZ80DPGrTCw75-x-11" value="" style="shape=partialRectangle;collapsible=0;dropTarget=0;pointerEvents=0;fillColor=none;top=0;left=0;bottom=0;right=0;points=[[0,0.5],[1,0.5]];portConstraint=eastwest;" vertex="1" parent="jH1fqyZ80DPGrTCw75-x-1">
          <mxGeometry y="120" width="430" height="30" as="geometry" />
        </mxCell>
        <mxCell id="jH1fqyZ80DPGrTCw75-x-12" value="" style="shape=partialRectangle;connectable=0;fillColor=none;top=0;left=0;bottom=0;right=0;editable=1;overflow=hidden;" vertex="1" parent="jH1fqyZ80DPGrTCw75-x-11">
          <mxGeometry width="30" height="30" as="geometry" />
        </mxCell>
        <mxCell id="jH1fqyZ80DPGrTCw75-x-13" value="Row 3" style="shape=partialRectangle;connectable=0;fillColor=none;top=0;left=0;bottom=0;right=0;align=left;spacingLeft=6;overflow=hidden;" vertex="1" parent="jH1fqyZ80DPGrTCw75-x-11">
          <mxGeometry x="30" width="400" height="30" as="geometry" />
        </mxCell>
        <mxCell id="jH1fqyZ80DPGrTCw75-x-14" value="Pool" style="swimlane;html=1;childLayout=stackLayout;resizeParent=1;resizeParentMax=0;startSize=20;" vertex="1" parent="1">
          <mxGeometry x="100" y="330" width="670" height="480" as="geometry" />
        </mxCell>
        <mxCell id="jH1fqyZ80DPGrTCw75-x-15" value="Lane 1" style="swimlane;html=1;startSize=20;" vertex="1" parent="jH1fqyZ80DPGrTCw75-x-14">
          <mxGeometry y="20" width="160" height="460" as="geometry" />
        </mxCell>
        <mxCell id="jH1fqyZ80DPGrTCw75-x-18" value="" style="rounded=0;whiteSpace=wrap;html=1;" vertex="1" parent="jH1fqyZ80DPGrTCw75-x-15">
          <mxGeometry x="30" y="50" width="100" height="40" as="geometry" />
        </mxCell>
        <mxCell id="jH1fqyZ80DPGrTCw75-x-16" value="Lane 2" style="swimlane;html=1;startSize=20;" vertex="1" parent="jH1fqyZ80DPGrTCw75-x-14">
          <mxGeometry x="160" y="20" width="150" height="460" as="geometry" />
        </mxCell>
        <mxCell id="jH1fqyZ80DPGrTCw75-x-29" value="" style="verticalLabelPosition=bottom;verticalAlign=top;html=1;shape=mxgraph.basic.rect;fillColor2=none;strokeWidth=1;size=20;indent=5;" vertex="1" parent="jH1fqyZ80DPGrTCw75-x-16">
          <mxGeometry x="40" y="45" width="90" height="50" as="geometry" />
        </mxCell>
        <mxCell id="jH1fqyZ80DPGrTCw75-x-33" value="" style="edgeStyle=entityRelationEdgeStyle;fontSize=12;html=1;endArrow=ERzeroToMany;endFill=1;exitX=0.5;exitY=1;exitDx=0;exitDy=0;" edge="1" parent="jH1fqyZ80DPGrTCw75-x-16" source="jH1fqyZ80DPGrTCw75-x-18">
          <mxGeometry width="100" height="100" relative="1" as="geometry">
            <mxPoint x="-50" y="170" as="sourcePoint" />
            <mxPoint x="50" y="70" as="targetPoint" />
          </mxGeometry>
        </mxCell>
        <mxCell id="jH1fqyZ80DPGrTCw75-x-27" value="" style="whiteSpace=wrap;html=1;fontStyle=1;startSize=20;" vertex="1" parent="jH1fqyZ80DPGrTCw75-x-14">
          <mxGeometry x="310" y="20" width="120" height="460" as="geometry" />
        </mxCell>
        <mxCell id="jH1fqyZ80DPGrTCw75-x-17" value="Lane 3" style="swimlane;html=1;startSize=20;" vertex="1" parent="jH1fqyZ80DPGrTCw75-x-14">
          <mxGeometry x="430" y="20" width="120" height="460" as="geometry" />
        </mxCell>
        <mxCell id="jH1fqyZ80DPGrTCw75-x-28" value="Lane 3" style="swimlane;html=1;startSize=20;" vertex="1" parent="jH1fqyZ80DPGrTCw75-x-14">
          <mxGeometry x="550" y="20" width="120" height="460" as="geometry" />
        </mxCell>
      </root>
    </mxGraphModel>
  </diagram>
</mxfile>
